<svg width="20" height="20" viewBox="0 0 20 20" fill="none" xmlns="http://www.w3.org/2000/svg">
<g clip-path="url(#clip0_11065_3443)">
<path d="M16.5516 14.2423L16.5516 14.2423L15.996 14.2277C15.996 14.2277 15.996 14.2277 15.996 14.2277C14.6368 15.5173 13.0635 16.659 11.9918 17.1388L11.9918 17.1388C11.0173 17.5755 9.95555 17.6934 8.92951 17.4896C9.3664 17.2107 9.76409 16.8758 10.1124 16.495C12.4911 16.1768 14.1909 14.4681 14.2641 14.3935L14.2641 14.3935C14.4161 14.2386 14.4138 13.9898 14.2589 13.8377L14.2589 13.8377C14.104 13.6858 13.8552 13.688 13.7032 13.8429L13.7022 13.844L13.699 13.8471L13.6871 13.8589C13.6767 13.869 13.6614 13.8837 13.6414 13.9024C13.6015 13.9399 13.5429 13.9934 13.4671 14.0588C13.3155 14.1897 13.0953 14.3679 12.8184 14.5598C12.3146 14.9091 11.6259 15.3021 10.8232 15.54C11.3499 14.6597 11.653 13.6309 11.653 12.5327C11.653 12.3191 11.6412 12.081 11.6181 11.8249L11.6181 11.8249C11.5985 11.6084 11.407 11.4502 11.1917 11.4689L11.1913 11.4689C10.9752 11.4884 10.8158 11.6795 10.8353 11.8957C10.8564 12.1294 10.8671 12.3437 10.8671 12.5327C10.8671 15.3396 8.58336 17.6233 5.77652 17.6233C2.9696 17.6232 0.685938 15.3396 0.685938 12.5327C0.685938 10.991 1.34579 8.35888 2.25882 6.28054C2.8096 5.02691 3.4099 4.04649 4.01568 3.38121C4.62332 2.71389 5.2241 2.37665 5.77648 2.37665C6.27948 2.37665 6.76349 2.64446 7.20378 3.04345C7.64284 3.44131 8.02703 3.95943 8.3287 4.43611L8.4132 4.38263C8.49977 4.51939 8.68078 4.56009 8.81742 4.47349L8.8709 4.55799C8.87092 4.55798 8.87094 4.55796 8.87095 4.55795C9.05429 4.44188 9.10887 4.19917 8.99282 4.01579C7.98906 2.42978 6.90921 1.59067 5.77652 1.59067C4.93891 1.59067 4.12134 2.05849 3.34588 2.94776L3.42125 3.01349L3.34588 2.94776C2.70007 3.68838 2.09285 4.70438 1.53931 5.96436C0.575761 8.1576 -0.1 10.8561 -0.1 12.5327C-0.1 15.7731 2.5361 18.4092 5.77652 18.4092C6.52355 18.4092 7.23858 18.269 7.8967 18.0136C8.55234 18.2531 9.23304 18.3729 9.91277 18.3729C10.7302 18.3729 11.5455 18.2001 12.3132 17.8561C13.4867 17.3305 15.1038 16.1576 16.537 14.7978L16.537 14.7978C16.6944 14.6484 16.7009 14.3997 16.5516 14.2423Z" fill="white" stroke="white" stroke-width="0.2"/>
<path d="M9.63336 5.15458L9.63337 5.15459C9.82263 5.53091 10.005 5.93246 10.1776 6.35022C12.032 5.98611 14.073 5.85425 15.7042 5.99893C17.9106 6.19458 19.3844 6.87727 19.896 8.01914M9.63336 5.15458L17.4145 13.9162L17.3415 13.8478L17.4145 13.9162M9.63336 5.15458C9.53583 4.96072 9.29975 4.88251 9.10577 4.98005L9.63336 5.15458ZM19.896 8.01914L19.8047 8.06003L19.896 8.01913C19.896 8.01913 19.896 8.01914 19.896 8.01914ZM19.896 8.01914C20.3324 8.99291 20.0165 10.1361 19.4527 11.1869C18.8864 12.2422 18.0556 13.2318 17.4145 13.9162M17.4145 13.9162C17.3371 13.9988 17.2323 14.0405 17.1276 14.0405M17.4145 13.9162L17.1276 14.0405M10.7651 10.6934L10.6668 10.7117C10.3413 8.96701 9.69207 7.02058 8.93122 5.50765M10.7651 10.6934L9.10574 4.98007C8.91182 5.07754 8.83371 5.31379 8.93122 5.50765M10.7651 10.6934L10.6668 10.7117C10.7021 10.9008 10.8671 11.0327 11.0528 11.0327M10.7651 10.6934L11.0528 11.0327M8.93122 5.50765L9.02056 5.46272L8.93122 5.50765ZM11.4394 10.5676L11.4394 10.5676C11.4792 10.7809 11.3386 10.9861 11.1252 11.026L11.4394 10.5676ZM11.4394 10.5676C11.3442 10.057 11.2222 9.53018 11.0786 9.00161C12.6157 8.46689 13.9591 8.3241 14.9254 8.31661C15.4178 8.3128 15.8121 8.3441 16.0842 8.37656C16.2202 8.39278 16.3257 8.40929 16.3975 8.42183C16.4334 8.4281 16.4608 8.43338 16.4795 8.43713L16.5009 8.44154L16.5065 8.44275C16.5074 8.44296 16.508 8.44309 16.5083 8.44314C16.7194 8.4928 16.9308 8.36173 16.9805 8.1507L16.9805 8.1507M11.4394 10.5676L16.9805 8.1507M16.9805 8.1507C17.0303 7.93944 16.8994 7.72789 16.6882 7.6781M16.9805 8.1507L19.1788 8.34045M19.1788 8.34045L19.1788 8.34045C18.9452 7.81911 18.4138 7.45828 17.7515 7.21216C17.0917 6.96695 16.32 6.8425 15.6348 6.78175C14.1176 6.64724 12.2174 6.76384 10.4685 7.0944C10.6079 7.47162 10.7388 7.85734 10.8591 8.24585C14.158 7.10716 16.5732 7.65093 16.6882 7.6781M19.1788 8.34045C19.415 8.86755 19.3399 9.58623 18.9429 10.4537C18.5471 11.3185 17.8389 12.3136 16.8409 13.3789C16.6925 13.5373 16.7006 13.786 16.859 13.9344L16.859 13.9344M19.1788 8.34045L16.859 13.9344M16.6882 7.6781L16.6652 7.77542L16.6881 7.67808C16.6882 7.67809 16.6882 7.67809 16.6882 7.6781ZM16.859 13.9344C16.9348 14.0053 17.0314 14.0405 17.1276 14.0405M16.859 13.9344L17.1276 14.0405M11.0528 11.0327C11.0766 11.0327 11.1008 11.0305 11.1252 11.026L11.0528 11.0327Z" fill="white" stroke="white" stroke-width="0.2"/>
<path d="M15.3999 10.7177L15.3999 10.7177C15.5947 10.622 15.8302 10.7023 15.9259 10.8971M15.3999 10.7177L11.8114 12.9191C11.8798 13.0584 12.0195 13.1389 12.1644 13.1389C12.2227 13.1389 12.2819 13.1258 12.3374 13.0985L12.2933 13.0088L12.3375 13.0985L15.7466 11.4231L15.7466 11.4231C15.9413 11.3274 16.0216 11.0919 15.9259 10.8971M15.3999 10.7177L11.9908 12.3931L11.9908 12.3931M15.3999 10.7177L11.9908 12.3931M15.9259 10.8971L15.8362 10.9412L15.9259 10.8971C15.9259 10.8971 15.9259 10.8971 15.9259 10.8971ZM11.9908 12.3931C11.7961 12.4889 11.7157 12.7243 11.8114 12.9191L11.9908 12.3931Z" fill="white" stroke="white" stroke-width="0.2"/>
<path d="M4.70369 4.30496L4.7037 4.30496C4.87594 4.4366 4.90902 4.68283 4.77772 4.85526M4.70369 4.30496L2.98274 14.4569L3.0023 14.5549C3.21512 14.5125 3.35329 14.3056 3.31085 14.0927C2.71414 11.0997 3.14676 8.74553 3.61338 7.29966C3.86664 6.51489 4.15727 5.90435 4.38493 5.48956C4.49874 5.28219 4.59679 5.1238 4.6665 5.01711C4.70135 4.96377 4.72912 4.92335 4.74822 4.89621C4.76678 4.86984 4.77708 4.8561 4.77772 4.85526M4.70369 4.30496C4.53125 4.17317 4.28464 4.2062 4.15287 4.37851L4.15286 4.37853C4.11869 4.42323 3.42205 5.34746 2.87464 7.02988C2.37244 8.57329 1.90811 11.0763 2.54006 14.2464L2.63808 14.2269L2.54006 14.2464C2.57734 14.4334 2.74151 14.5626 2.92516 14.5626L4.70369 4.30496ZM4.77772 4.85526C4.77769 4.8553 4.77766 4.85534 4.77763 4.85538L4.69809 4.79477L4.77775 4.85522L4.77774 4.85523C4.77774 4.85523 4.77773 4.85524 4.77772 4.85526Z" fill="white" stroke="white" stroke-width="0.2"/>
<path d="M8.78162 9.11404L8.78166 9.11402C8.98353 9.03521 9.21127 9.13451 9.29045 9.3365C9.29046 9.33652 9.29046 9.33654 9.29047 9.33656L9.19736 9.37304C9.21404 9.41554 9.60568 10.429 9.66346 11.7825L8.78162 9.11404ZM8.78162 9.11404C8.57959 9.193 8.47981 9.42075 8.55849 9.62278M8.78162 9.11404L7.54193 15.781M7.54193 15.781L7.54193 15.781C8.5588 14.7886 9.04461 13.4627 8.97885 11.8292C8.95384 11.2079 8.84938 10.6576 8.75059 10.2613C8.70123 10.0633 8.65338 9.90407 8.61775 9.79408C8.59993 9.73909 8.58518 9.69643 8.57484 9.6674L8.56281 9.63426L8.55959 9.62567C8.55883 9.62366 8.55847 9.62271 8.55849 9.62278M7.54193 15.781C7.38663 15.9326 7.38358 16.1814 7.53517 16.3367L7.53518 16.3367M7.54193 15.781L7.53518 16.3367M8.55849 9.62278L8.6517 9.58655L8.55852 9.62286C8.55851 9.62283 8.5585 9.6228 8.55849 9.62278ZM7.53518 16.3367C7.6122 16.4156 7.71443 16.4553 7.81646 16.4553M7.53518 16.3367L7.81646 16.4553M7.81646 16.4553C7.9153 16.4553 8.01451 16.4181 8.09092 16.3435L7.81646 16.4553Z" fill="white" stroke="white" stroke-width="0.2"/>
<path d="M6.77977 6.39039L6.77977 6.39039L6.77902 6.39042C6.56215 6.39812 6.39255 6.5802 6.40025 6.79711L6.40025 6.79711L6.53521 10.5933L6.53521 10.5933C6.54281 10.8055 6.7171 10.9723 6.92777 10.9723L6.94169 10.9721L6.9419 10.9721C7.15878 10.9644 7.32837 10.7823 7.32067 10.5654L7.32067 10.5654L7.18571 6.76919C7.18571 6.76919 7.18571 6.76919 7.18571 6.76918C7.17798 6.55163 6.99574 6.38435 6.77977 6.39039Z" fill="white" stroke="white" stroke-width="0.2"/>
<path d="M3.80305 15.3266L3.80308 15.3266C3.80301 15.3265 3.80355 15.3271 3.80482 15.3285L3.80998 15.3341L3.82947 15.3545C3.8464 15.3721 3.87103 15.3971 3.90248 15.4277C3.96541 15.4889 4.05537 15.5722 4.16524 15.6625C4.3862 15.8442 4.68244 16.0499 4.99788 16.1647C5.20179 16.2389 5.30703 16.4643 5.23277 16.6683M3.80305 15.3266L4.76334 16.8093L4.72906 16.9032C4.77338 16.9194 4.81879 16.927 4.86349 16.927C5.02388 16.927 5.17466 16.828 5.23277 16.6683M3.80305 15.3266C3.65757 15.1659 3.40923 15.1533 3.24824 15.2988L3.80305 15.3266ZM5.23277 16.6683L5.1388 16.6341L5.23278 16.6683C5.23278 16.6683 5.23277 16.6683 5.23277 16.6683ZM3.22016 15.8538C3.22015 15.8538 3.22014 15.8538 3.22012 15.8538L3.29435 15.7868L3.22016 15.8538ZM3.22016 15.8538C3.07466 15.6928 3.08723 15.4443 3.24823 15.2988L3.22016 15.8538Z" fill="white" stroke="white" stroke-width="0.2"/>
<path d="M7.09375 11.3551C6.87673 11.3551 6.70078 11.531 6.70078 11.748V11.7746C6.70078 11.9917 6.87673 12.1676 7.09375 12.1676C7.31077 12.1676 7.48672 11.9917 7.48672 11.7746V11.748C7.48672 11.531 7.31077 11.3551 7.09375 11.3551Z" fill="white" stroke="white" stroke-width="0.2"/>
<path d="M6.37207 12.1271C6.15505 12.1271 5.9791 12.3029 5.9791 12.52V12.5466C5.9791 12.7637 6.15505 12.9396 6.37207 12.9396C6.58909 12.9396 6.76504 12.7637 6.76504 12.5466V12.52C6.76504 12.303 6.58914 12.1271 6.37207 12.1271Z" fill="white" stroke="white" stroke-width="0.2"/>
<path d="M7.30371 13.4391C7.08669 13.4391 6.91074 13.615 6.91074 13.832V13.8586C6.91074 14.0757 7.08669 14.2516 7.30371 14.2516C7.52073 14.2516 7.69668 14.0757 7.69668 13.8586V13.832C7.69668 13.615 7.52073 13.4391 7.30371 13.4391Z" fill="white" stroke="white" stroke-width="0.2"/>
</g>
<defs>
<clipPath id="clip0_11065_3443">
<rect width="20" height="20" fill="white"/>
</clipPath>
</defs>
</svg>
